<svg width="64" height="64" viewBox="0 0 64 64" fill="none" xmlns="http://www.w3.org/2000/svg">
<g clip-path="url(#clip0_4122_24277)">
<path d="M36.7103 43.076C40.8119 43.7966 45.0365 43.0728 48.6642 41.0278C52.2919 38.9828 55.0983 35.7433 56.6053 31.8611C58.1122 27.9789 58.2265 23.6943 56.9285 19.7374C55.6306 15.7804 53.0008 12.3959 49.4872 10.1605C45.9736 7.92518 41.7936 6.97725 37.6595 7.47828C33.5253 7.97931 30.8785 8.99002 28.0006 12" stroke="#DB4350" stroke-width="5" stroke-linecap="round"/>
<path d="M14.9985 54.9966L12.5731 55.6031C12.7722 56.399 13.349 57.0466 14.1167 57.3359C14.8843 57.6253 15.7451 57.5196 16.42 57.0532L14.9985 54.9966ZM17.4238 54.3901L14.4238 42.3934L9.57319 43.6064L12.5731 55.6031L17.4238 54.3901ZM24.1024 45.6648L13.577 52.9401L16.42 57.0532L26.9454 49.7779L24.1024 45.6648Z" fill="#231F55"/>
<path d="M21 24H27" stroke="#DB4350" stroke-width="5" stroke-linecap="round"/>
<path d="M17 32.5H31.4333" stroke="#DB4350" stroke-width="5" stroke-linecap="round"/>
<path d="M25.274 47.9586C29.4279 47.6636 33.351 45.9374 36.3749 43.0741C39.3988 40.2108 41.3363 36.3876 41.8573 32.2559C42.3784 28.1243 41.4507 23.9398 39.2324 20.4154C37.014 16.891 33.6423 14.2449 29.6917 12.9278C25.741 11.6107 21.4559 11.7042 17.5665 13.1924C13.6771 14.6805 10.424 17.4712 8.36148 21.089C6.29898 24.7068 5.5547 28.9278 6.25546 33.0328C6.95622 37.1378 9.05866 40.8728 12.2045 43.6015" stroke="#231F55" stroke-width="5" stroke-linecap="round"/>
</g>
<defs>
<clipPath id="clip0_4122_24277">
<rect width="64" height="64" fill="white"/>
</clipPath>
</defs>
</svg>
