<svg width="64" height="64" viewBox="0 0 64 64" fill="none" xmlns="http://www.w3.org/2000/svg">
<circle cx="32" cy="32" r="26" stroke="#231F55" stroke-width="5"/>
<path d="M42 39L42.9285 41.3212C43.8776 40.9415 44.5 40.0223 44.5 39H42ZM32 29V31.5V29ZM22 39H19.5C19.5 40.0223 20.1224 40.9415 21.0715 41.3212L22 39ZM32 43L31.0715 45.3212L32 45.6926L32.9285 45.3212L32 43ZM44.5 39C44.5 37.3585 44.1767 35.733 43.5485 34.2165L38.9291 36.1299C39.306 37.0398 39.5 38.0151 39.5 39H44.5ZM43.5485 34.2165C42.9203 32.6999 41.9996 31.3219 40.8388 30.1612L37.3033 33.6967C37.9997 34.3931 38.5522 35.2199 38.9291 36.1299L43.5485 34.2165ZM40.8388 30.1612C39.6781 29.0004 38.3001 28.0797 36.7835 27.4515L34.8701 32.0709C35.7801 32.4478 36.6069 33.0003 37.3033 33.6967L40.8388 30.1612ZM36.7835 27.4515C35.267 26.8233 33.6415 26.5 32 26.5V31.5C32.9849 31.5 33.9602 31.694 34.8701 32.0709L36.7835 27.4515ZM32 26.5C30.3585 26.5 28.733 26.8233 27.2165 27.4515L29.1299 32.0709C30.0398 31.694 31.0151 31.5 32 31.5V26.5ZM27.2165 27.4515C25.6999 28.0797 24.3219 29.0004 23.1612 30.1612L26.6967 33.6967C27.3931 33.0003 28.2199 32.4478 29.1299 32.0709L27.2165 27.4515ZM23.1612 30.1612C22.0004 31.3219 21.0797 32.6999 20.4515 34.2165L25.0709 36.1299C25.4478 35.2199 26.0003 34.3931 26.6967 33.6967L23.1612 30.1612ZM20.4515 34.2165C19.8233 35.733 19.5 37.3585 19.5 39H24.5C24.5 38.0151 24.694 37.0398 25.0709 36.1299L20.4515 34.2165ZM21.0715 41.3212L31.0715 45.3212L32.9285 40.6788L22.9285 36.6788L21.0715 41.3212ZM32.9285 45.3212L42.9285 41.3212L41.0715 36.6788L31.0715 40.6788L32.9285 45.3212Z" fill="#231F55"/>
<circle cx="32" cy="25" r="6" fill="#DB4350"/>
</svg>
