<svg width="34" height="34" viewBox="0 0 34 34" fill="none" xmlns="http://www.w3.org/2000/svg">
<path fill-rule="evenodd" clip-rule="evenodd" d="M20.0192 10H13.3397C11.503 10 10 11.5024 10 13.3397V20.0192C10 21.8559 11.503 23.3589 13.3397 23.3589H20.0192C21.8559 23.3589 23.3589 21.8559 23.3589 20.0192V13.3397C23.3589 11.5024 21.8559 10 20.0192 10ZM16.6795 19.4625C15.1423 19.4625 13.8964 18.2161 13.8964 16.6795C13.8964 15.1422 15.1423 13.8963 16.6795 13.8963C18.2162 13.8963 19.4627 15.1422 19.4627 16.6795C19.4627 18.2161 18.2162 19.4625 16.6795 19.4625ZM19.4626 13.0614C19.4626 13.5224 19.836 13.8963 20.2975 13.8963C20.7591 13.8963 21.1325 13.5224 21.1325 13.0614C21.1325 12.6003 20.7591 12.2265 20.2975 12.2265C19.836 12.2265 19.4626 12.6003 19.4626 13.0614Z" fill="white"/>
<rect x="1" y="1" width="32" height="32" rx="16" stroke="white" stroke-width="0.5"/>
</svg>
