<svg width="34" height="34" viewBox="0 0 34 34" fill="none" xmlns="http://www.w3.org/2000/svg">
<path fill-rule="evenodd" clip-rule="evenodd" d="M12.0836 10.0324C11.6978 10.123 11.3097 10.4494 11.1293 10.8349C10.8894 11.3475 10.9882 11.9473 11.3852 12.3889C11.7304 12.7728 12.261 12.9293 12.7692 12.7969C13.822 12.5228 14.1883 11.1871 13.4212 10.4194C13.324 10.3221 13.1802 10.2098 13.1018 10.1698C12.7938 10.0126 12.3963 9.95901 12.0836 10.0324ZM19.2718 13.7939C18.5901 13.9508 18.0178 14.3267 17.6759 14.8418L17.5512 15.0298L17.5417 14.4735L17.5322 13.9171H16.3631H15.1939V17.8746V21.832H16.4138H17.6336L17.6462 19.5178C17.6573 17.479 17.6657 17.1776 17.717 16.9859C17.847 16.5 18.0772 16.1836 18.4133 16.0288C18.6588 15.9157 19.0508 15.8668 19.3406 15.9131C19.8697 15.9976 20.1243 16.2519 20.2942 16.8654C20.3666 17.127 20.3691 17.2019 20.382 19.4834L20.3953 21.832H21.6166H22.838L22.8245 19.1737C22.8127 16.8503 22.8035 16.4701 22.7512 16.1572C22.5325 14.849 21.9606 14.132 20.9064 13.8441C20.5679 13.7517 19.5862 13.7215 19.2718 13.7939ZM11.2021 17.8746V21.832H12.4237H13.6453V17.8746V13.9171H12.4237H11.2021V17.8746Z" fill="white"/>
<rect x="1" y="1" width="32" height="32" rx="16" stroke="white" stroke-width="0.5"/>
</svg>
