<svg width="34" height="34" viewBox="0 0 34 34" fill="none" xmlns="http://www.w3.org/2000/svg">
<path d="M23.0866 13.9523C23.0962 14.0822 23.0962 14.2113 23.0962 14.3405C23.0962 18.2925 20.0882 22.8464 14.591 22.8464C12.8974 22.8464 11.324 22.3558 10 21.5038C10.2405 21.5313 10.472 21.541 10.7221 21.541C12.1196 21.541 13.4058 21.0689 14.4337 20.2637C13.1193 20.2362 12.0179 19.3753 11.638 18.1908C11.8228 18.2183 12.0083 18.2368 12.2027 18.2368C12.4707 18.2368 12.7401 18.1997 12.9902 18.1352C11.6194 17.8576 10.593 16.6545 10.593 15.2014V15.1643C10.9915 15.3862 11.4539 15.525 11.9437 15.5435C11.1385 15.0077 10.6108 14.0911 10.6108 13.0543C10.6108 12.4992 10.7585 11.99 11.0175 11.5462C12.4892 13.3593 14.7016 14.5446 17.1819 14.6745C17.1359 14.4518 17.1077 14.221 17.1077 13.9894C17.1077 12.3418 18.4406 11 20.0971 11C20.958 11 21.7351 11.3607 22.2813 11.944C22.9567 11.8142 23.6039 11.564 24.1783 11.2219C23.9564 11.9158 23.4836 12.4992 22.8639 12.8695C23.4658 12.8042 24.0492 12.638 24.585 12.4064C24.1783 12.9986 23.6699 13.5263 23.0866 13.9523Z" fill="white"/>
<rect x="1" y="1" width="32" height="32" rx="16" stroke="white" stroke-width="0.5"/>
</svg>
