<svg width="64" height="64" viewBox="0 0 64 64" fill="none" xmlns="http://www.w3.org/2000/svg">
<path d="M14 32V54H50V32" stroke="#231F55" stroke-width="5"/>
<path d="M14 12H50L54 22H10L14 12Z" stroke="#231F55" stroke-width="5" stroke-linejoin="round"/>
<rect x="26" y="40" width="12" height="16" fill="#DB4350"/>
<path fill-rule="evenodd" clip-rule="evenodd" d="M9.99916 19.5H8.37448L7.71463 20.9847L6.63294 23.4185C4.50694 28.202 7.73564 33.6534 12.9522 34.0881C15.7443 34.3208 18.2633 32.8792 19.5657 30.6314C21.0151 32.5855 23.2813 33.96 26.0348 34.1321C28.3342 34.2758 30.4554 33.432 31.9992 31.9756C33.5429 33.432 35.6641 34.2758 37.9636 34.1321C40.717 33.96 42.9832 32.5855 44.4326 30.6314C45.735 32.8792 48.254 34.3208 51.0461 34.0881C56.2627 33.6534 59.4914 28.202 57.3654 23.4185L56.2837 20.9847L55.6238 19.5H53.9992H45.9992H44.0903H43.4992H42.6658H34.4992H31.9992H29.4992H21.3325H20.4992H19.908H17.9992H9.99916ZM29.4992 26.1802L29.4992 26.1831C29.4975 27.8934 28.054 29.2486 26.3467 29.1418C23.931 28.9909 22.3907 26.68 22.9378 24.5H29.4992V26.1802ZM34.4992 26.1802L34.4992 24.5H41.0606C41.6076 26.68 40.0673 28.9909 37.6517 29.1418C35.9433 29.2486 34.4992 27.8919 34.4992 26.1802ZM11.202 25.4492L11.6238 24.5H15.4992V27.1439C15.4992 28.2954 14.515 29.201 13.3675 29.1054C11.5799 28.9564 10.4735 27.0883 11.202 25.4492ZM52.7963 25.4492L52.3745 24.5H48.4992V27.1439C48.4992 28.2954 49.4833 29.201 50.6309 29.1054C52.4185 28.9564 53.5248 27.0883 52.7963 25.4492Z" fill="#DB4350"/>
</svg>
