<svg width="32" height="32" viewBox="0 0 32 32" fill="none" xmlns="http://www.w3.org/2000/svg">
<path d="M7 16V27H25V16" stroke="#2F4F4F" stroke-width="2.5"/>
<path d="M7 6H25L27 11H5L7 6Z" stroke="#2F4F4F" stroke-width="2.5" stroke-linejoin="round"/>
<rect x="13" y="20" width="6" height="8" fill="#F1B343"/>
<path fill-rule="evenodd" clip-rule="evenodd" d="M5.00056 9.75H4.18822L3.85829 10.4923L3.31745 11.7092C2.25445 14.101 3.8688 16.8267 6.47709 17.044C7.87314 17.1604 9.13262 16.4396 9.78384 15.3157C10.5085 16.2928 11.6416 16.98 13.0184 17.0661C14.1681 17.1379 15.2287 16.716 16.0006 15.9878C16.7724 16.716 17.833 17.1379 18.9828 17.0661C20.3595 16.98 21.4926 16.2928 22.2173 15.3157C22.8685 16.4396 24.128 17.1604 25.524 17.044C28.1323 16.8267 29.7467 14.101 28.6837 11.7092L28.1428 10.4923L27.8129 9.75H27.0006H23.0006H22.0461H21.7506H21.3339H17.2506H16.0006H14.7506H10.6672H10.2506H9.95497H9.00056H5.00056ZM17.2506 13.0901L17.2506 12.25H20.5313C20.8048 13.34 20.0346 14.4954 18.8268 14.5709C17.9726 14.6243 17.2506 13.9459 17.2506 13.0901ZM11.4699 12.25H14.7506V13.0901C14.7506 13.9459 14.0285 14.6243 13.1743 14.5709C11.9665 14.4954 11.1963 13.34 11.4699 12.25ZM5.60198 12.7246L5.8129 12.25H7.75056V13.572C7.75056 14.1477 7.25847 14.6005 6.6847 14.5527C5.79091 14.4782 5.23771 13.5442 5.60198 12.7246ZM26.3991 12.7246L26.1882 12.25H24.2506V13.572C24.2506 14.1477 24.7426 14.6005 25.3164 14.5527C26.2102 14.4782 26.7634 13.5442 26.3991 12.7246Z" fill="#F1B343"/>
</svg>
