<svg width="64" height="64" viewBox="0 0 64 64" fill="none" xmlns="http://www.w3.org/2000/svg">
<path d="M32 6L32 16" stroke="#DB4350" stroke-width="5"/>
<circle cx="32" cy="36" r="22" stroke="#231F55" stroke-width="5"/>
<path d="M40 6L24 6" stroke="#231F55" stroke-width="5" stroke-linejoin="round"/>
<path d="M22 36L16 36" stroke="#DB4350" stroke-width="5"/>
<path d="M32 26L32 20" stroke="#DB4350" stroke-width="5"/>
<path d="M48 36L42 36" stroke="#DB4350" stroke-width="5" stroke-linejoin="round"/>
<path d="M32 52L32 46" stroke="#DB4350" stroke-width="5"/>
<path d="M25.2969 30.7231L33.5628 35.1634C34.9438 35.9053 35.2192 37.7686 34.1118 38.8782V38.8782C33.0686 39.9235 31.3298 39.7531 30.5094 38.5251L25.2969 30.7231Z" fill="#231F55"/>
<path d="M41.6284 28.1562L34.5733 38.5871C33.6819 39.905 31.7946 40.047 30.716 38.8773C29.689 37.7635 29.8992 35.9957 31.1588 35.1538L41.6284 28.1562Z" fill="#231F55"/>
</svg>
