<svg width="64" height="64" viewBox="0 0 64 64" fill="none" xmlns="http://www.w3.org/2000/svg">
<g clip-path="url(#clip0_4063_22826)">
<circle cx="32" cy="32" r="10" stroke="#231F55" stroke-width="5"/>
<path fill-rule="evenodd" clip-rule="evenodd" d="M15.4236 11.9696L15.4236 7.91973L20.4236 7.91973L20.4236 17.9197C20.4236 19.3004 19.3044 20.4197 17.9236 20.4197L7.92364 20.4197L7.92364 15.4197L11.8014 15.4197L4.41805 8.13709L7.92923 4.57737L15.4236 11.9696Z" fill="#DB4350"/>
<path fill-rule="evenodd" clip-rule="evenodd" d="M15.4236 52.0929L15.4236 56.1428L20.4236 56.1428L20.4236 46.1428C20.4236 44.7621 19.3044 43.6428 17.9236 43.6428L7.92364 43.6428L7.92364 48.6428L11.8014 48.6428L4.41805 55.9254L7.92923 59.4851L15.4236 52.0929Z" fill="#DB4350"/>
<path fill-rule="evenodd" clip-rule="evenodd" d="M48.5451 12.0946L48.5451 8.04473L43.5451 8.04473L43.5451 18.0447C43.5451 19.4254 44.6644 20.5447 46.0451 20.5447L56.0451 20.5447L56.0451 15.5447L52.1674 15.5447L59.5507 8.26209L56.0395 4.70237L48.5451 12.0946Z" fill="#DB4350"/>
<path fill-rule="evenodd" clip-rule="evenodd" d="M48.5451 51.9054L48.5451 55.9553L43.5451 55.9553L43.5451 45.9553C43.5451 44.5746 44.6644 43.4553 46.0451 43.4553L56.0451 43.4553L56.0451 48.4553L52.1674 48.4553L59.5507 55.7379L56.0395 59.2976L48.5451 51.9054Z" fill="#DB4350"/>
</g>
<defs>
<clipPath id="clip0_4063_22826">
<rect width="64" height="64" fill="white"/>
</clipPath>
</defs>
</svg>
