<svg width="32" height="32" viewBox="0 0 32 32" fill="none" xmlns="http://www.w3.org/2000/svg">
<g clip-path="url(#clip0_3015_17449)">
<circle cx="16" cy="16" r="5" stroke="#2F4F4F" stroke-width="2.5"/>
<path fill-rule="evenodd" clip-rule="evenodd" d="M7.70898 5.98382V3.95987H10.209L10.209 8.95987C10.209 9.65022 9.64934 10.2099 8.95898 10.2099L3.95898 10.2099L3.95898 7.70987L5.89884 7.70987L2.20619 4.06757L3.96178 2.28771L7.70898 5.98382Z" fill="#F1B343"/>
<path fill-rule="evenodd" clip-rule="evenodd" d="M7.70898 26.0513V28.0753H10.209L10.209 23.0753C10.209 22.3849 9.64934 21.8253 8.95898 21.8253L3.95898 21.8253L3.95898 24.3253L5.89884 24.3253L2.20619 27.9676L3.96178 29.7474L7.70898 26.0513Z" fill="#F1B343"/>
<path fill-rule="evenodd" clip-rule="evenodd" d="M24.2754 6.05022V4.02627H21.7754L21.7754 9.02627C21.7754 9.71663 22.335 10.2763 23.0254 10.2763L28.0254 10.2763L28.0254 7.77627L26.0855 7.77627L29.7782 4.13398L28.0226 2.35412L24.2754 6.05022Z" fill="#F1B343"/>
<path fill-rule="evenodd" clip-rule="evenodd" d="M24.2754 25.9498V27.9737H21.7754L21.7754 22.9737C21.7754 22.2834 22.335 21.7237 23.0254 21.7237L28.0254 21.7237L28.0254 24.2237L26.0855 24.2237L29.7782 27.866L28.0226 29.6459L24.2754 25.9498Z" fill="#F1B343"/>
</g>
<defs>
<clipPath id="clip0_3015_17449">
<rect width="32" height="32" fill="white"/>
</clipPath>
</defs>
</svg>
