<svg width="32" height="32" viewBox="0 0 32 32" fill="none" xmlns="http://www.w3.org/2000/svg">
<path d="M5 15V13.75C4.30964 13.75 3.75 14.3096 3.75 15H5ZM27 15H28.25C28.25 14.3096 27.6904 13.75 27 13.75V15ZM27 28V29.25H28.25V28H27ZM5 28H3.75V29.25H5V28ZM5 16.25H27V13.75H5V16.25ZM25.75 15V28H28.25V15H25.75ZM27 26.75H5V29.25H27V26.75ZM6.25 28V15H3.75V28H6.25Z" fill="#2F4F4F"/>
<path d="M10.25 18L10.25 25" stroke="#F1B343" stroke-width="2.5"/>
<path d="M16 18L16 25" stroke="#F1B343" stroke-width="2.5"/>
<path d="M21.75 18L21.75 25" stroke="#F1B343" stroke-width="2.5"/>
<path fill-rule="evenodd" clip-rule="evenodd" d="M17.5411 7.24157L18.9716 5.81105L20.7393 7.57882L17.2038 11.1144C16.7157 11.6025 15.9242 11.6025 15.436 11.1144L11.9005 7.57882L13.6683 5.81105L15.0406 7.18337L15.005 1.99635L17.5049 1.97919L17.5411 7.24157Z" fill="#F1B343"/>
</svg>
