<svg width="64" height="64" viewBox="0 0 64 64" fill="none" xmlns="http://www.w3.org/2000/svg">
<path d="M8 22L5.91987 20.6132C5.6461 21.0239 5.5 21.5064 5.5 22H8ZM56 22H58.5C58.5 21.5064 58.3539 21.0239 58.0801 20.6132L56 22ZM56 54V56.5H58.5V54H56ZM8 54H5.5V56.5H8V54ZM16 10V7.5C15.1641 7.5 14.3835 7.91775 13.9199 8.61325L16 10ZM48 10L50.0801 8.61325C49.6165 7.91775 48.8359 7.5 48 7.5V10ZM8 24.5H56V19.5H8V24.5ZM53.5 22V54H58.5V22H53.5ZM56 51.5H8V56.5H56V51.5ZM10.5 54V22H5.5V54H10.5ZM10.0801 23.3868L18.0801 11.3868L13.9199 8.61325L5.91987 20.6132L10.0801 23.3868ZM16 12.5H48V7.5H16V12.5ZM45.9199 11.3868L53.9199 23.3868L58.0801 20.6132L50.0801 8.61325L45.9199 11.3868Z" fill="#231F55"/>
<path d="M24 36L30 42L40 32" stroke="#DB4350" stroke-width="5" stroke-linejoin="round"/>
</svg>
