<svg width="64" height="64" viewBox="0 0 64 64" fill="none" xmlns="http://www.w3.org/2000/svg">
<path d="M50 13H52.5C52.5 11.6193 51.3807 10.5 50 10.5V13ZM58 46V48.5H60.5V46H58ZM38 28H35.5V30.5H38V28ZM58 34.5H60.5C60.5 33.7472 60.1608 33.0344 59.5765 32.5597L58 34.5ZM14 15.5H38V10.5H14V15.5ZM38 15.5H50V10.5H38V15.5ZM35.5 13V28H40.5V13H35.5ZM55.5 34.5V46H60.5V34.5H55.5ZM38 30.5H50V25.5H38V30.5ZM48.4235 29.9403L56.4235 36.4403L59.5765 32.5597L51.5765 26.0597L48.4235 29.9403ZM47.5 13V28H52.5V13H47.5ZM58 43.5H48V48.5H58V43.5ZM15 43.5H4V48.5H15V43.5ZM39 43.5H29V48.5H39V43.5ZM29 43.5H28V48.5H29V43.5Z" fill="#231F55"/>
<circle cx="45" cy="46" r="5" stroke="#DB4350" stroke-width="5"/>
<circle cx="21" cy="46" r="5" stroke="#DB4350" stroke-width="5"/>
<path d="M10 23L24 23" stroke="#DB4350" stroke-width="5"/>
<path d="M6 32L20 32" stroke="#DB4350" stroke-width="5"/>
</svg>
