<svg width="32" height="32" viewBox="0 0 32 32" fill="none" xmlns="http://www.w3.org/2000/svg">
<path d="M25 6.5H26.25C26.25 5.80964 25.6904 5.25 25 5.25V6.5ZM29 23V24.25H30.25V23H29ZM19 14H17.75V15.25H19V14ZM29 17.25H30.25C30.25 16.8736 30.0804 16.5172 29.7882 16.2799L29 17.25ZM7 7.75H19V5.25H7V7.75ZM19 7.75H25V5.25H19V7.75ZM17.75 6.5V14H20.25V6.5H17.75ZM27.75 17.25V23H30.25V17.25H27.75ZM19 15.25H25V12.75H19V15.25ZM24.2118 14.9701L28.2118 18.2201L29.7882 16.2799L25.7882 13.0299L24.2118 14.9701ZM23.75 6.5V14H26.25V6.5H23.75ZM29 21.75H24V24.25H29V21.75ZM7.5 21.75H2V24.25H7.5V21.75ZM19.5 21.75H14.5V24.25H19.5V21.75ZM14.5 21.75H14V24.25H14.5V21.75Z" fill="#2F4F4F"/>
<circle cx="22.5" cy="23" r="2.5" stroke="#F1B343" stroke-width="2.5"/>
<circle cx="10.5" cy="23" r="2.5" stroke="#F1B343" stroke-width="2.5"/>
<path d="M5 11.5L12 11.5" stroke="#F1B343" stroke-width="2.5"/>
<path d="M3 16L10 16" stroke="#F1B343" stroke-width="2.5"/>
</svg>
