<svg width="32" height="32" viewBox="0 0 32 32" fill="none" xmlns="http://www.w3.org/2000/svg">
<path d="M7.67822 7.34805C5.64777 9.28907 4.35962 11.8787 4.03662 14.6691C3.71362 17.4594 4.37608 20.2749 5.90939 22.6284C7.44271 24.982 9.75044 26.7256 12.4334 27.5576C15.1163 28.3896 18.0056 28.2577 20.6016 27.1847C23.1975 26.1117 25.3368 24.165 26.6492 21.6816C27.9617 19.1981 28.3649 16.3339 27.789 13.5847C27.213 10.8354 25.6943 8.37384 23.4954 6.6259C21.2965 4.87797 18.5559 3.95358 15.7475 4.01264" stroke="#2F4F4F" stroke-width="2.5"/>
<path d="M8.72726 11.0781L8.73703 6.44581L4.10472 6.43604" stroke="#2F4F4F" stroke-width="2.5" stroke-linejoin="round"/>
<path d="M21.0068 16.0469L11.0068 16.0469" stroke="#F1B343" stroke-width="2.5"/>
<circle cx="16.2565" cy="19.9961" r="1.25" transform="rotate(90 16.2565 19.9961)" fill="#F1B343"/>
<circle cx="16.2572" cy="11.9961" r="1.25" transform="rotate(90 16.2572 11.9961)" fill="#F1B343"/>
</svg>
