<svg width="64" height="67" viewBox="0 0 64 67" fill="none" xmlns="http://www.w3.org/2000/svg">
<g filter="url(#filter0_d_4063_22831)">
<path d="M15.3554 14.7039C11.2945 18.586 8.71821 23.7653 8.07221 29.346C7.4262 34.9266 8.75112 40.5576 11.8178 45.2647C14.8844 49.9718 19.4998 53.459 24.8657 55.123C30.2315 56.7871 36.0102 56.5232 41.2021 54.3772C46.394 52.2312 50.6725 48.3379 53.2974 43.3709C55.9224 38.404 56.7287 32.6757 55.5769 27.1771C54.425 21.6785 51.3875 16.7555 46.9898 13.2596C42.592 9.76375 37.1107 7.91497 31.494 8.0331" stroke="#231F55" stroke-width="5"/>
<path d="M17.4531 22.1562L17.4727 12.8916L8.20803 12.8721" stroke="#231F55" stroke-width="5" stroke-linejoin="round"/>
<path d="M42.0156 32.0938L22.0156 32.0937" stroke="#DB4350" stroke-width="5"/>
<circle cx="32.5156" cy="40" r="2.5" transform="rotate(90 32.5156 40)" fill="#DB4350"/>
<circle cx="32.5156" cy="24" r="2.5" transform="rotate(90 32.5156 24)" fill="#DB4350"/>
</g>
<defs>
<filter id="filter0_d_4063_22831" x="-4" y="0" width="72" height="72" filterUnits="userSpaceOnUse" color-interpolation-filters="sRGB">
<feFlood flood-opacity="0" result="BackgroundImageFix"/>
<feColorMatrix in="SourceAlpha" type="matrix" values="0 0 0 0 0 0 0 0 0 0 0 0 0 0 0 0 0 0 127 0" result="hardAlpha"/>
<feOffset dy="4"/>
<feGaussianBlur stdDeviation="2"/>
<feComposite in2="hardAlpha" operator="out"/>
<feColorMatrix type="matrix" values="0 0 0 0 0 0 0 0 0 0 0 0 0 0 0 0 0 0 0.25 0"/>
<feBlend mode="normal" in2="BackgroundImageFix" result="effect1_dropShadow_4063_22831"/>
<feBlend mode="normal" in="SourceGraphic" in2="effect1_dropShadow_4063_22831" result="shape"/>
</filter>
</defs>
</svg>
