<svg width="32" height="32" viewBox="0 0 32 32" fill="none" xmlns="http://www.w3.org/2000/svg">
<path d="M4 11L2.95994 10.3066C2.82305 10.512 2.75 10.7532 2.75 11H4ZM28 11H29.25C29.25 10.7532 29.177 10.512 29.0401 10.3066L28 11ZM28 27V28.25H29.25V27H28ZM4 27H2.75V28.25H4V27ZM8 5V3.75C7.58206 3.75 7.19177 3.95888 6.95994 4.30662L8 5ZM24 5L25.0401 4.30662C24.8082 3.95888 24.4179 3.75 24 3.75V5ZM4 12.25H28V9.75H4V12.25ZM26.75 11V27H29.25V11H26.75ZM28 25.75H4V28.25H28V25.75ZM5.25 27V11H2.75V27H5.25ZM5.04006 11.6934L9.04006 5.69338L6.95994 4.30662L2.95994 10.3066L5.04006 11.6934ZM8 6.25H24V3.75H8V6.25ZM22.9599 5.69338L26.9599 11.6934L29.0401 10.3066L25.0401 4.30662L22.9599 5.69338Z" fill="#2F4F4F"/>
<path d="M12 18L15 21L20 16" stroke="#F1B343" stroke-width="2.5" stroke-linejoin="round"/>
</svg>
