<svg width="64" height="64" viewBox="0 0 64 64" fill="none" xmlns="http://www.w3.org/2000/svg">
<path d="M10 30V27.5C8.61929 27.5 7.5 28.6193 7.5 30H10ZM54 30H56.5C56.5 28.6193 55.3807 27.5 54 27.5V30ZM54 56V58.5H56.5V56H54ZM10 56H7.5V58.5H10V56ZM10 32.5H54V27.5H10V32.5ZM51.5 30V56H56.5V30H51.5ZM54 53.5H10V58.5H54V53.5ZM12.5 56V30H7.5V56H12.5Z" fill="#231F55"/>
<path d="M20.5 36L20.5 50" stroke="#DB4350" stroke-width="5"/>
<path d="M32 36L32 50" stroke="#DB4350" stroke-width="5"/>
<path d="M43.5 36L43.5 50" stroke="#DB4350" stroke-width="5"/>
<path fill-rule="evenodd" clip-rule="evenodd" d="M35.0818 14.4832L37.9429 11.6221L41.4785 15.1576L34.4074 22.2287C33.4311 23.205 31.8482 23.205 30.8718 22.2287L23.8008 15.1576L27.3363 11.6221L30.0809 14.3667L30.0097 4.00051L35.0096 3.96619L35.0818 14.4832Z" fill="#DB4350"/>
</svg>
