<svg width="32" height="32" viewBox="0 0 32 32" fill="none" xmlns="http://www.w3.org/2000/svg">
<path d="M24.3371 7.34591C26.3644 9.28989 27.6483 11.8813 27.967 14.6718C28.2856 17.4624 27.6188 20.2766 26.082 22.6275C24.5452 24.9784 22.235 26.7182 19.551 27.546C16.8671 28.3737 13.9783 28.2373 11.3843 27.1604C8.79025 26.0835 6.65425 24.1337 5.34577 21.6484C4.03729 19.1632 3.63863 16.2987 4.21876 13.5506C4.7989 10.8025 6.32133 8.34357 8.52269 6.59924C10.7241 4.8549 13.4659 3.93487 16.2738 3.99829" stroke="#2F4F4F" stroke-width="2.5"/>
<path d="M23.2808 11.0703L23.2783 6.43846L27.9101 6.4359" stroke="#2F4F4F" stroke-width="2.5" stroke-linejoin="round"/>
<path d="M12 12.8516V11.6016C11.3096 11.6016 10.75 12.1612 10.75 12.8516H12ZM20 12.8516H21.25C21.25 12.1612 20.6904 11.6016 20 11.6016V12.8516ZM20 19.8516V21.1016H21.25V19.8516H20ZM12 19.8516H10.75V21.1016H12V19.8516ZM18.75 12.8516V19.8516H21.25V12.8516H18.75ZM13.25 19.8516V12.8516H10.75V19.8516H13.25ZM12 14.1016H16.1481V11.6016H12V14.1016ZM16.1481 14.1016H20V11.6016H16.1481V14.1016ZM20 18.6016H16.1481V21.1016H20V18.6016ZM16.1481 18.6016H12V21.1016H16.1481V18.6016Z" fill="#F1B343"/>
</svg>
