<svg width="64" height="64" viewBox="0 0 64 64" fill="none" xmlns="http://www.w3.org/2000/svg">
<path d="M48.6723 14.6918C52.7267 18.5798 55.2947 23.7626 55.932 29.3437C56.5692 34.9248 55.2357 40.5531 52.1621 45.255C49.0884 49.9568 44.468 53.4365 39.1001 55.092C33.7323 56.7475 27.9546 56.4747 22.7666 54.3208C17.5785 52.1669 13.3065 48.2674 10.6896 43.2969C8.07262 38.3263 7.27531 32.5974 8.43558 27.1012C9.59584 21.605 12.6407 16.6871 17.0434 13.1985C21.4461 9.70981 26.9298 7.86974 32.5457 7.99659" stroke="#231F55" stroke-width="5"/>
<path d="M46.5625 22.1406L46.5574 12.8769L55.8211 12.8718" stroke="#231F55" stroke-width="5" stroke-linejoin="round"/>
<path d="M24 25.7031V23.2031C22.6193 23.2031 21.5 24.3224 21.5 25.7031H24ZM40 25.7031H42.5C42.5 24.3224 41.3807 23.2031 40 23.2031V25.7031ZM40 39.7031V42.2031H42.5V39.7031H40ZM24 39.7031H21.5V42.2031H24V39.7031ZM37.5 25.7031V39.7031H42.5V25.7031H37.5ZM26.5 39.7031V25.7031H21.5V39.7031H26.5ZM24 28.2031H32.2963V23.2031H24V28.2031ZM32.2963 28.2031H40V23.2031H32.2963V28.2031ZM40 37.2031H32.2963V42.2031H40V37.2031ZM32.2963 37.2031H24V42.2031H32.2963V37.2031Z" fill="#DB4350"/>
</svg>
